<svg xmlns="http://www.w3.org/2000/svg" id="sv" width="180" height="180" viewBox="0 0 180 180"><path id="0" fill="#cccccc" d="M90, 0 A90,90 0 0 1 151.6078654465789,24.3915332055669 L131.07191029771926,46.261022137044606 A60,60 0 0 0 90,30 Z"></path><path id="1" fill="#e0067b" d="M151.6078654465789, 24.3915332055669 A90,90 0 0 1 179.82216876506163,84.34509077519489 L149.88144584337442,86.23006051679658 A60,60 0 0 0 131.07191029771926,46.261022137044606 Z"></path><path id="2" fill="#5d3cbd" d="M179.82216876506163, 84.34509077519489 A90,90 0 0 1 142.90575578109502,162.80783615265 L125.27050385406335,138.53855743510002 A60,60 0 0 0 149.88144584337442,86.23006051679658 Z"></path><path id="3" fill="#4e1367" d="M142.90575578109502, 162.80783615265 A90,90 0 1 1 89.98429203681187,0.0000013707783779182137 L89.98952802454124,30.000000913852254 A60,60 0 1 0 125.27050385406335,138.53855743510002 Z"></path></svg>